G04 MADE WITH FRITZING*
G04 WWW.FRITZING.ORG*
G04 DOUBLE SIDED*
G04 HOLES PLATED*
G04 CONTOUR ON CENTER OF CONTOUR VECTOR*
%ASAXBY*%
%FSLAX23Y23*%
%MOIN*%
%OFA0B0*%
%SFA1.0B1.0*%
%ADD10C,0.075000*%
%ADD11C,0.062992*%
%ADD12C,0.100000*%
%ADD13C,0.078000*%
%ADD14C,0.039370*%
%ADD15R,0.062992X0.062992*%
%ADD16C,0.024000*%
%ADD17R,0.001000X0.001000*%
%LNCOPPER0*%
G90*
G70*
G54D10*
X1483Y4501D03*
X1766Y4218D03*
X1483Y4301D03*
X1766Y4018D03*
X1483Y4001D03*
X1766Y3718D03*
X1483Y3701D03*
X1766Y3418D03*
X1483Y3301D03*
X1766Y3018D03*
G54D11*
X1166Y4318D03*
X1264Y4318D03*
X1166Y4018D03*
X1264Y4018D03*
X1166Y3718D03*
X1264Y3718D03*
X1166Y3418D03*
X1264Y3418D03*
X1166Y3118D03*
X1264Y3118D03*
G54D12*
X956Y2218D03*
X1466Y2218D03*
G54D10*
X1322Y4540D03*
X1066Y4540D03*
X1322Y4718D03*
X1066Y4718D03*
X1483Y4701D03*
X1766Y4418D03*
G54D13*
X866Y2918D03*
X866Y3018D03*
X866Y3118D03*
X866Y3218D03*
X866Y3318D03*
X866Y3418D03*
X866Y3518D03*
X866Y3618D03*
X866Y3718D03*
X866Y3818D03*
X866Y3918D03*
X866Y4018D03*
X866Y4118D03*
X866Y4218D03*
X866Y4318D03*
X266Y4318D03*
X266Y4218D03*
X266Y4118D03*
X266Y4018D03*
X266Y3918D03*
X266Y3818D03*
X266Y3718D03*
X266Y3618D03*
X266Y3518D03*
X266Y3418D03*
X266Y3318D03*
X266Y3218D03*
X266Y3118D03*
X266Y3018D03*
X266Y2918D03*
G54D14*
X466Y4718D03*
G54D15*
X1166Y4318D03*
X1166Y4018D03*
X1166Y3718D03*
X1166Y3418D03*
X1166Y3118D03*
G54D16*
X1766Y4035D02*
X1766Y4200D01*
D02*
X1048Y4717D02*
X966Y4716D01*
D02*
X966Y4716D02*
X966Y4119D01*
D02*
X966Y4119D02*
X885Y4118D01*
D02*
X1064Y4017D02*
X876Y3734D01*
D02*
X1064Y4319D02*
X1064Y4017D01*
D02*
X1150Y4318D02*
X1064Y4319D01*
D02*
X1156Y4005D02*
X877Y3633D01*
D02*
X882Y3528D02*
X1153Y3709D01*
D02*
X885Y3418D02*
X1150Y3418D01*
D02*
X1339Y4716D02*
X1466Y4702D01*
D02*
X1276Y4328D02*
X1470Y4489D01*
D02*
X1766Y4235D02*
X1766Y4400D01*
D02*
X1274Y4030D02*
X1472Y4287D01*
D02*
X1766Y3735D02*
X1766Y4000D01*
D02*
X1766Y3700D02*
X1766Y3435D01*
D02*
X1274Y3430D02*
X1472Y3687D01*
D02*
X1274Y3730D02*
X1472Y3987D01*
D02*
X1276Y3128D02*
X1470Y3289D01*
D02*
X1766Y3400D02*
X1766Y3035D01*
D02*
X1466Y2417D02*
X1466Y2258D01*
D02*
X1766Y3000D02*
X1767Y2417D01*
D02*
X1767Y2417D02*
X1466Y2417D01*
D02*
X247Y2918D02*
X66Y2917D01*
D02*
X66Y2917D02*
X66Y2417D01*
D02*
X66Y2417D02*
X966Y2417D01*
D02*
X966Y2417D02*
X958Y2258D01*
D02*
X882Y3307D02*
X1153Y3126D01*
D02*
X247Y4118D02*
X66Y4118D01*
D02*
X66Y4118D02*
X66Y4817D01*
D02*
X285Y3018D02*
X465Y3017D01*
D02*
X465Y3017D02*
X466Y4710D01*
G54D17*
X108Y4868D02*
X144Y4868D01*
X582Y4868D02*
X613Y4868D01*
X107Y4867D02*
X143Y4867D01*
X581Y4867D02*
X612Y4867D01*
X106Y4866D02*
X141Y4866D01*
X580Y4866D02*
X611Y4866D01*
X104Y4865D02*
X140Y4865D01*
X580Y4865D02*
X610Y4865D01*
X103Y4864D02*
X139Y4864D01*
X579Y4864D02*
X610Y4864D01*
X102Y4863D02*
X138Y4863D01*
X578Y4863D02*
X609Y4863D01*
X101Y4862D02*
X137Y4862D01*
X577Y4862D02*
X608Y4862D01*
X100Y4861D02*
X136Y4861D01*
X576Y4861D02*
X607Y4861D01*
X99Y4860D02*
X134Y4860D01*
X575Y4860D02*
X606Y4860D01*
X97Y4859D02*
X133Y4859D01*
X574Y4859D02*
X605Y4859D01*
X96Y4858D02*
X132Y4858D01*
X573Y4858D02*
X604Y4858D01*
X95Y4857D02*
X131Y4857D01*
X573Y4857D02*
X603Y4857D01*
X94Y4856D02*
X130Y4856D01*
X572Y4856D02*
X603Y4856D01*
X93Y4855D02*
X129Y4855D01*
X571Y4855D02*
X602Y4855D01*
X92Y4854D02*
X128Y4854D01*
X570Y4854D02*
X601Y4854D01*
X90Y4853D02*
X126Y4853D01*
X569Y4853D02*
X600Y4853D01*
X89Y4852D02*
X125Y4852D01*
X568Y4852D02*
X599Y4852D01*
X88Y4851D02*
X124Y4851D01*
X567Y4851D02*
X598Y4851D01*
X87Y4850D02*
X123Y4850D01*
X566Y4850D02*
X597Y4850D01*
X86Y4849D02*
X122Y4849D01*
X566Y4849D02*
X596Y4849D01*
X85Y4848D02*
X121Y4848D01*
X565Y4848D02*
X596Y4848D01*
X83Y4847D02*
X119Y4847D01*
X564Y4847D02*
X595Y4847D01*
X82Y4846D02*
X118Y4846D01*
X563Y4846D02*
X594Y4846D01*
X81Y4845D02*
X117Y4845D01*
X562Y4845D02*
X593Y4845D01*
X80Y4844D02*
X116Y4844D01*
X561Y4844D02*
X592Y4844D01*
X79Y4843D02*
X115Y4843D01*
X560Y4843D02*
X591Y4843D01*
X78Y4842D02*
X114Y4842D01*
X559Y4842D02*
X590Y4842D01*
X77Y4841D02*
X112Y4841D01*
X559Y4841D02*
X589Y4841D01*
X75Y4840D02*
X111Y4840D01*
X558Y4840D02*
X589Y4840D01*
X74Y4839D02*
X110Y4839D01*
X557Y4839D02*
X588Y4839D01*
X73Y4838D02*
X109Y4838D01*
X556Y4838D02*
X587Y4838D01*
X72Y4837D02*
X108Y4837D01*
X555Y4837D02*
X586Y4837D01*
X71Y4836D02*
X107Y4836D01*
X554Y4836D02*
X585Y4836D01*
X70Y4835D02*
X105Y4835D01*
X553Y4835D02*
X584Y4835D01*
X68Y4834D02*
X104Y4834D01*
X552Y4834D02*
X583Y4834D01*
X67Y4833D02*
X103Y4833D01*
X552Y4833D02*
X582Y4833D01*
X66Y4832D02*
X102Y4832D01*
X551Y4832D02*
X582Y4832D01*
X65Y4831D02*
X101Y4831D01*
X550Y4831D02*
X581Y4831D01*
X64Y4830D02*
X100Y4830D01*
X549Y4830D02*
X580Y4830D01*
X63Y4829D02*
X98Y4829D01*
X548Y4829D02*
X579Y4829D01*
X61Y4828D02*
X97Y4828D01*
X547Y4828D02*
X578Y4828D01*
X60Y4827D02*
X96Y4827D01*
X546Y4827D02*
X577Y4827D01*
X59Y4826D02*
X95Y4826D01*
X545Y4826D02*
X576Y4826D01*
X58Y4825D02*
X94Y4825D01*
X545Y4825D02*
X575Y4825D01*
X57Y4824D02*
X93Y4824D01*
X544Y4824D02*
X575Y4824D01*
X57Y4823D02*
X91Y4823D01*
X543Y4823D02*
X574Y4823D01*
X56Y4822D02*
X90Y4822D01*
X542Y4822D02*
X573Y4822D01*
X56Y4821D02*
X89Y4821D01*
X541Y4821D02*
X572Y4821D01*
X56Y4820D02*
X88Y4820D01*
X540Y4820D02*
X571Y4820D01*
X56Y4819D02*
X87Y4819D01*
X539Y4819D02*
X570Y4819D01*
X55Y4818D02*
X86Y4818D01*
X538Y4818D02*
X569Y4818D01*
X55Y4817D02*
X84Y4817D01*
X538Y4817D02*
X568Y4817D01*
X55Y4816D02*
X83Y4816D01*
X537Y4816D02*
X568Y4816D01*
X56Y4815D02*
X82Y4815D01*
X536Y4815D02*
X567Y4815D01*
X56Y4814D02*
X81Y4814D01*
X535Y4814D02*
X566Y4814D01*
X56Y4813D02*
X80Y4813D01*
X534Y4813D02*
X565Y4813D01*
X57Y4812D02*
X79Y4812D01*
X533Y4812D02*
X564Y4812D01*
X57Y4811D02*
X77Y4811D01*
X532Y4811D02*
X563Y4811D01*
X58Y4810D02*
X76Y4810D01*
X531Y4810D02*
X562Y4810D01*
X59Y4809D02*
X75Y4809D01*
X531Y4809D02*
X561Y4809D01*
X60Y4808D02*
X74Y4808D01*
X530Y4808D02*
X561Y4808D01*
X61Y4807D02*
X72Y4807D01*
X529Y4807D02*
X560Y4807D01*
X64Y4806D02*
X70Y4806D01*
X528Y4806D02*
X559Y4806D01*
X527Y4805D02*
X558Y4805D01*
X526Y4804D02*
X557Y4804D01*
X525Y4803D02*
X556Y4803D01*
X524Y4802D02*
X555Y4802D01*
X524Y4801D02*
X554Y4801D01*
X523Y4800D02*
X554Y4800D01*
X522Y4799D02*
X553Y4799D01*
X521Y4798D02*
X552Y4798D01*
X520Y4797D02*
X551Y4797D01*
X519Y4796D02*
X550Y4796D01*
X518Y4795D02*
X549Y4795D01*
X517Y4794D02*
X548Y4794D01*
X517Y4793D02*
X547Y4793D01*
X516Y4792D02*
X547Y4792D01*
X515Y4791D02*
X546Y4791D01*
X514Y4790D02*
X545Y4790D01*
X513Y4789D02*
X544Y4789D01*
X512Y4788D02*
X543Y4788D01*
X511Y4787D02*
X542Y4787D01*
X510Y4786D02*
X541Y4786D01*
X510Y4785D02*
X540Y4785D01*
X509Y4784D02*
X540Y4784D01*
X508Y4783D02*
X539Y4783D01*
X507Y4782D02*
X538Y4782D01*
X506Y4781D02*
X537Y4781D01*
X505Y4780D02*
X536Y4780D01*
X504Y4779D02*
X535Y4779D01*
X503Y4778D02*
X534Y4778D01*
X503Y4777D02*
X533Y4777D01*
X502Y4776D02*
X533Y4776D01*
X501Y4775D02*
X532Y4775D01*
X500Y4774D02*
X531Y4774D01*
X499Y4773D02*
X530Y4773D01*
X498Y4772D02*
X529Y4772D01*
X497Y4771D02*
X528Y4771D01*
X496Y4770D02*
X527Y4770D01*
X496Y4769D02*
X526Y4769D01*
X495Y4768D02*
X526Y4768D01*
X494Y4767D02*
X525Y4767D01*
X493Y4766D02*
X524Y4766D01*
X492Y4765D02*
X523Y4765D01*
X491Y4764D02*
X522Y4764D01*
X490Y4763D02*
X521Y4763D01*
X489Y4762D02*
X520Y4762D01*
X489Y4761D02*
X519Y4761D01*
X488Y4760D02*
X519Y4760D01*
X487Y4759D02*
X518Y4759D01*
X486Y4758D02*
X517Y4758D01*
X485Y4757D02*
X516Y4757D01*
X484Y4756D02*
X515Y4756D01*
X483Y4755D02*
X514Y4755D01*
X482Y4754D02*
X513Y4754D01*
X482Y4753D02*
X512Y4753D01*
X481Y4752D02*
X512Y4752D01*
X480Y4751D02*
X511Y4751D01*
X479Y4750D02*
X510Y4750D01*
X478Y4749D02*
X509Y4749D01*
X477Y4748D02*
X508Y4748D01*
X476Y4747D02*
X507Y4747D01*
X475Y4746D02*
X506Y4746D01*
X475Y4745D02*
X505Y4745D01*
X474Y4744D02*
X505Y4744D01*
X473Y4743D02*
X504Y4743D01*
X472Y4742D02*
X503Y4742D01*
X471Y4741D02*
X502Y4741D01*
X470Y4740D02*
X501Y4740D01*
X469Y4739D02*
X500Y4739D01*
X468Y4738D02*
X499Y4738D01*
X468Y4737D02*
X498Y4737D01*
X467Y4736D02*
X498Y4736D01*
X466Y4735D02*
X497Y4735D01*
X465Y4734D02*
X496Y4734D01*
X464Y4733D02*
X495Y4733D01*
X463Y4732D02*
X494Y4732D01*
X462Y4731D02*
X493Y4731D01*
X462Y4730D02*
X492Y4730D01*
X461Y4729D02*
X491Y4729D01*
X461Y4728D02*
X491Y4728D01*
X460Y4727D02*
X490Y4727D01*
X460Y4726D02*
X489Y4726D01*
X460Y4725D02*
X488Y4725D01*
X460Y4724D02*
X487Y4724D01*
X460Y4723D02*
X486Y4723D01*
X460Y4722D02*
X485Y4722D01*
X460Y4721D02*
X485Y4721D01*
X461Y4720D02*
X484Y4720D01*
X461Y4719D02*
X483Y4719D01*
X462Y4718D02*
X482Y4718D01*
X462Y4717D02*
X481Y4717D01*
X463Y4716D02*
X480Y4716D01*
X464Y4715D02*
X479Y4715D01*
X465Y4714D02*
X478Y4714D01*
X467Y4713D02*
X476Y4713D01*
X470Y4712D02*
X473Y4712D01*
X907Y2268D02*
X1005Y2268D01*
X1417Y2268D02*
X1515Y2268D01*
X907Y2267D02*
X1006Y2267D01*
X1417Y2267D02*
X1516Y2267D01*
X907Y2266D02*
X1006Y2266D01*
X1417Y2266D02*
X1516Y2266D01*
X907Y2265D02*
X1006Y2265D01*
X1417Y2265D02*
X1516Y2265D01*
X907Y2264D02*
X1006Y2264D01*
X1417Y2264D02*
X1516Y2264D01*
X907Y2263D02*
X1006Y2263D01*
X1417Y2263D02*
X1516Y2263D01*
X907Y2262D02*
X1006Y2262D01*
X1417Y2262D02*
X1516Y2262D01*
X907Y2261D02*
X1006Y2261D01*
X1417Y2261D02*
X1516Y2261D01*
X907Y2260D02*
X1006Y2260D01*
X1417Y2260D02*
X1516Y2260D01*
X907Y2259D02*
X1006Y2259D01*
X1417Y2259D02*
X1516Y2259D01*
X907Y2258D02*
X955Y2258D01*
X957Y2258D02*
X1006Y2258D01*
X1417Y2258D02*
X1465Y2258D01*
X1467Y2258D02*
X1516Y2258D01*
X907Y2257D02*
X947Y2257D01*
X966Y2257D02*
X1006Y2257D01*
X1417Y2257D02*
X1457Y2257D01*
X1475Y2257D02*
X1516Y2257D01*
X907Y2256D02*
X943Y2256D01*
X969Y2256D02*
X1006Y2256D01*
X1417Y2256D02*
X1453Y2256D01*
X1479Y2256D02*
X1516Y2256D01*
X907Y2255D02*
X940Y2255D01*
X972Y2255D02*
X1006Y2255D01*
X1417Y2255D02*
X1450Y2255D01*
X1482Y2255D02*
X1516Y2255D01*
X907Y2254D02*
X938Y2254D01*
X974Y2254D02*
X1006Y2254D01*
X1417Y2254D02*
X1448Y2254D01*
X1484Y2254D02*
X1516Y2254D01*
X907Y2253D02*
X936Y2253D01*
X976Y2253D02*
X1006Y2253D01*
X1417Y2253D02*
X1446Y2253D01*
X1486Y2253D02*
X1516Y2253D01*
X907Y2252D02*
X935Y2252D01*
X978Y2252D02*
X1006Y2252D01*
X1417Y2252D02*
X1445Y2252D01*
X1488Y2252D02*
X1516Y2252D01*
X907Y2251D02*
X933Y2251D01*
X979Y2251D02*
X1006Y2251D01*
X1417Y2251D02*
X1443Y2251D01*
X1489Y2251D02*
X1516Y2251D01*
X907Y2250D02*
X932Y2250D01*
X981Y2250D02*
X1006Y2250D01*
X1417Y2250D02*
X1442Y2250D01*
X1491Y2250D02*
X1516Y2250D01*
X907Y2249D02*
X930Y2249D01*
X982Y2249D02*
X1006Y2249D01*
X1417Y2249D02*
X1440Y2249D01*
X1492Y2249D02*
X1516Y2249D01*
X907Y2248D02*
X929Y2248D01*
X983Y2248D02*
X1006Y2248D01*
X1417Y2248D02*
X1439Y2248D01*
X1493Y2248D02*
X1516Y2248D01*
X907Y2247D02*
X928Y2247D01*
X984Y2247D02*
X1006Y2247D01*
X1417Y2247D02*
X1438Y2247D01*
X1494Y2247D02*
X1516Y2247D01*
X907Y2246D02*
X927Y2246D01*
X985Y2246D02*
X1006Y2246D01*
X1417Y2246D02*
X1437Y2246D01*
X1495Y2246D02*
X1516Y2246D01*
X907Y2245D02*
X926Y2245D01*
X986Y2245D02*
X1006Y2245D01*
X1417Y2245D02*
X1436Y2245D01*
X1496Y2245D02*
X1516Y2245D01*
X907Y2244D02*
X925Y2244D01*
X987Y2244D02*
X1006Y2244D01*
X1417Y2244D02*
X1435Y2244D01*
X1497Y2244D02*
X1516Y2244D01*
X907Y2243D02*
X924Y2243D01*
X988Y2243D02*
X1006Y2243D01*
X1417Y2243D02*
X1434Y2243D01*
X1498Y2243D02*
X1516Y2243D01*
X907Y2242D02*
X924Y2242D01*
X989Y2242D02*
X1006Y2242D01*
X1417Y2242D02*
X1434Y2242D01*
X1499Y2242D02*
X1516Y2242D01*
X907Y2241D02*
X923Y2241D01*
X989Y2241D02*
X1006Y2241D01*
X1417Y2241D02*
X1433Y2241D01*
X1499Y2241D02*
X1516Y2241D01*
X907Y2240D02*
X922Y2240D01*
X990Y2240D02*
X1006Y2240D01*
X1417Y2240D02*
X1432Y2240D01*
X1500Y2240D02*
X1516Y2240D01*
X907Y2239D02*
X922Y2239D01*
X991Y2239D02*
X1006Y2239D01*
X1417Y2239D02*
X1432Y2239D01*
X1501Y2239D02*
X1516Y2239D01*
X907Y2238D02*
X921Y2238D01*
X991Y2238D02*
X1006Y2238D01*
X1417Y2238D02*
X1431Y2238D01*
X1501Y2238D02*
X1516Y2238D01*
X907Y2237D02*
X920Y2237D01*
X992Y2237D02*
X1006Y2237D01*
X1417Y2237D02*
X1430Y2237D01*
X1502Y2237D02*
X1516Y2237D01*
X907Y2236D02*
X920Y2236D01*
X992Y2236D02*
X1006Y2236D01*
X1417Y2236D02*
X1430Y2236D01*
X1502Y2236D02*
X1516Y2236D01*
X907Y2235D02*
X920Y2235D01*
X993Y2235D02*
X1006Y2235D01*
X1417Y2235D02*
X1429Y2235D01*
X1503Y2235D02*
X1516Y2235D01*
X907Y2234D02*
X919Y2234D01*
X993Y2234D02*
X1006Y2234D01*
X1417Y2234D02*
X1429Y2234D01*
X1503Y2234D02*
X1516Y2234D01*
X907Y2233D02*
X919Y2233D01*
X994Y2233D02*
X1006Y2233D01*
X1417Y2233D02*
X1429Y2233D01*
X1504Y2233D02*
X1516Y2233D01*
X907Y2232D02*
X918Y2232D01*
X994Y2232D02*
X1006Y2232D01*
X1417Y2232D02*
X1428Y2232D01*
X1504Y2232D02*
X1516Y2232D01*
X907Y2231D02*
X918Y2231D01*
X994Y2231D02*
X1006Y2231D01*
X1417Y2231D02*
X1428Y2231D01*
X1504Y2231D02*
X1516Y2231D01*
X907Y2230D02*
X918Y2230D01*
X995Y2230D02*
X1006Y2230D01*
X1417Y2230D02*
X1427Y2230D01*
X1505Y2230D02*
X1516Y2230D01*
X907Y2229D02*
X917Y2229D01*
X995Y2229D02*
X1006Y2229D01*
X1417Y2229D02*
X1427Y2229D01*
X1505Y2229D02*
X1516Y2229D01*
X907Y2228D02*
X917Y2228D01*
X995Y2228D02*
X1006Y2228D01*
X1417Y2228D02*
X1427Y2228D01*
X1505Y2228D02*
X1516Y2228D01*
X907Y2227D02*
X917Y2227D01*
X996Y2227D02*
X1006Y2227D01*
X1417Y2227D02*
X1427Y2227D01*
X1505Y2227D02*
X1516Y2227D01*
X907Y2226D02*
X917Y2226D01*
X996Y2226D02*
X1006Y2226D01*
X1417Y2226D02*
X1426Y2226D01*
X1506Y2226D02*
X1516Y2226D01*
X907Y2225D02*
X916Y2225D01*
X996Y2225D02*
X1006Y2225D01*
X1417Y2225D02*
X1426Y2225D01*
X1506Y2225D02*
X1516Y2225D01*
X907Y2224D02*
X916Y2224D01*
X996Y2224D02*
X1006Y2224D01*
X1417Y2224D02*
X1426Y2224D01*
X1506Y2224D02*
X1516Y2224D01*
X907Y2223D02*
X916Y2223D01*
X996Y2223D02*
X1006Y2223D01*
X1417Y2223D02*
X1426Y2223D01*
X1506Y2223D02*
X1516Y2223D01*
X907Y2222D02*
X916Y2222D01*
X996Y2222D02*
X1006Y2222D01*
X1417Y2222D02*
X1426Y2222D01*
X1506Y2222D02*
X1516Y2222D01*
X907Y2221D02*
X916Y2221D01*
X997Y2221D02*
X1006Y2221D01*
X1417Y2221D02*
X1426Y2221D01*
X1506Y2221D02*
X1516Y2221D01*
X907Y2220D02*
X916Y2220D01*
X997Y2220D02*
X1006Y2220D01*
X1417Y2220D02*
X1426Y2220D01*
X1506Y2220D02*
X1516Y2220D01*
X907Y2219D02*
X916Y2219D01*
X997Y2219D02*
X1006Y2219D01*
X1417Y2219D02*
X1426Y2219D01*
X1506Y2219D02*
X1516Y2219D01*
X907Y2218D02*
X916Y2218D01*
X997Y2218D02*
X1006Y2218D01*
X1417Y2218D02*
X1426Y2218D01*
X1507Y2218D02*
X1516Y2218D01*
X907Y2217D02*
X916Y2217D01*
X997Y2217D02*
X1006Y2217D01*
X1417Y2217D02*
X1426Y2217D01*
X1506Y2217D02*
X1516Y2217D01*
X907Y2216D02*
X916Y2216D01*
X997Y2216D02*
X1006Y2216D01*
X1417Y2216D02*
X1426Y2216D01*
X1506Y2216D02*
X1516Y2216D01*
X907Y2215D02*
X916Y2215D01*
X997Y2215D02*
X1006Y2215D01*
X1417Y2215D02*
X1426Y2215D01*
X1506Y2215D02*
X1516Y2215D01*
X907Y2214D02*
X916Y2214D01*
X996Y2214D02*
X1006Y2214D01*
X1417Y2214D02*
X1426Y2214D01*
X1506Y2214D02*
X1516Y2214D01*
X907Y2213D02*
X916Y2213D01*
X996Y2213D02*
X1006Y2213D01*
X1417Y2213D02*
X1426Y2213D01*
X1506Y2213D02*
X1516Y2213D01*
X907Y2212D02*
X916Y2212D01*
X996Y2212D02*
X1006Y2212D01*
X1417Y2212D02*
X1426Y2212D01*
X1506Y2212D02*
X1516Y2212D01*
X907Y2211D02*
X916Y2211D01*
X996Y2211D02*
X1006Y2211D01*
X1417Y2211D02*
X1426Y2211D01*
X1506Y2211D02*
X1516Y2211D01*
X907Y2210D02*
X917Y2210D01*
X996Y2210D02*
X1006Y2210D01*
X1417Y2210D02*
X1426Y2210D01*
X1506Y2210D02*
X1516Y2210D01*
X907Y2209D02*
X917Y2209D01*
X996Y2209D02*
X1006Y2209D01*
X1417Y2209D02*
X1427Y2209D01*
X1505Y2209D02*
X1516Y2209D01*
X907Y2208D02*
X917Y2208D01*
X995Y2208D02*
X1006Y2208D01*
X1417Y2208D02*
X1427Y2208D01*
X1505Y2208D02*
X1516Y2208D01*
X907Y2207D02*
X917Y2207D01*
X995Y2207D02*
X1006Y2207D01*
X1417Y2207D02*
X1427Y2207D01*
X1505Y2207D02*
X1516Y2207D01*
X907Y2206D02*
X918Y2206D01*
X995Y2206D02*
X1006Y2206D01*
X1417Y2206D02*
X1427Y2206D01*
X1505Y2206D02*
X1516Y2206D01*
X907Y2205D02*
X918Y2205D01*
X994Y2205D02*
X1006Y2205D01*
X1417Y2205D02*
X1428Y2205D01*
X1504Y2205D02*
X1516Y2205D01*
X907Y2204D02*
X918Y2204D01*
X994Y2204D02*
X1006Y2204D01*
X1417Y2204D02*
X1428Y2204D01*
X1504Y2204D02*
X1516Y2204D01*
X907Y2203D02*
X919Y2203D01*
X994Y2203D02*
X1006Y2203D01*
X1417Y2203D02*
X1429Y2203D01*
X1504Y2203D02*
X1516Y2203D01*
X907Y2202D02*
X919Y2202D01*
X993Y2202D02*
X1006Y2202D01*
X1417Y2202D02*
X1429Y2202D01*
X1503Y2202D02*
X1516Y2202D01*
X907Y2201D02*
X920Y2201D01*
X993Y2201D02*
X1006Y2201D01*
X1417Y2201D02*
X1429Y2201D01*
X1503Y2201D02*
X1516Y2201D01*
X907Y2200D02*
X920Y2200D01*
X992Y2200D02*
X1006Y2200D01*
X1417Y2200D02*
X1430Y2200D01*
X1502Y2200D02*
X1516Y2200D01*
X907Y2199D02*
X921Y2199D01*
X992Y2199D02*
X1006Y2199D01*
X1417Y2199D02*
X1430Y2199D01*
X1502Y2199D02*
X1516Y2199D01*
X907Y2198D02*
X921Y2198D01*
X991Y2198D02*
X1006Y2198D01*
X1417Y2198D02*
X1431Y2198D01*
X1501Y2198D02*
X1516Y2198D01*
X907Y2197D02*
X922Y2197D01*
X991Y2197D02*
X1006Y2197D01*
X1417Y2197D02*
X1432Y2197D01*
X1501Y2197D02*
X1516Y2197D01*
X907Y2196D02*
X922Y2196D01*
X990Y2196D02*
X1006Y2196D01*
X1417Y2196D02*
X1432Y2196D01*
X1500Y2196D02*
X1516Y2196D01*
X907Y2195D02*
X923Y2195D01*
X989Y2195D02*
X1006Y2195D01*
X1417Y2195D02*
X1433Y2195D01*
X1499Y2195D02*
X1516Y2195D01*
X907Y2194D02*
X924Y2194D01*
X989Y2194D02*
X1006Y2194D01*
X1417Y2194D02*
X1434Y2194D01*
X1498Y2194D02*
X1516Y2194D01*
X907Y2193D02*
X925Y2193D01*
X988Y2193D02*
X1006Y2193D01*
X1417Y2193D02*
X1434Y2193D01*
X1498Y2193D02*
X1516Y2193D01*
X907Y2192D02*
X925Y2192D01*
X987Y2192D02*
X1006Y2192D01*
X1417Y2192D02*
X1435Y2192D01*
X1497Y2192D02*
X1516Y2192D01*
X907Y2191D02*
X926Y2191D01*
X986Y2191D02*
X1006Y2191D01*
X1417Y2191D02*
X1436Y2191D01*
X1496Y2191D02*
X1516Y2191D01*
X907Y2190D02*
X927Y2190D01*
X985Y2190D02*
X1006Y2190D01*
X1417Y2190D02*
X1437Y2190D01*
X1495Y2190D02*
X1516Y2190D01*
X907Y2189D02*
X928Y2189D01*
X984Y2189D02*
X1006Y2189D01*
X1417Y2189D02*
X1438Y2189D01*
X1494Y2189D02*
X1516Y2189D01*
X907Y2188D02*
X929Y2188D01*
X983Y2188D02*
X1006Y2188D01*
X1417Y2188D02*
X1439Y2188D01*
X1493Y2188D02*
X1516Y2188D01*
X907Y2187D02*
X930Y2187D01*
X982Y2187D02*
X1006Y2187D01*
X1417Y2187D02*
X1440Y2187D01*
X1492Y2187D02*
X1516Y2187D01*
X907Y2186D02*
X932Y2186D01*
X981Y2186D02*
X1006Y2186D01*
X1417Y2186D02*
X1442Y2186D01*
X1490Y2186D02*
X1516Y2186D01*
X907Y2185D02*
X933Y2185D01*
X979Y2185D02*
X1006Y2185D01*
X1417Y2185D02*
X1443Y2185D01*
X1489Y2185D02*
X1516Y2185D01*
X907Y2184D02*
X935Y2184D01*
X978Y2184D02*
X1006Y2184D01*
X1417Y2184D02*
X1445Y2184D01*
X1487Y2184D02*
X1516Y2184D01*
X907Y2183D02*
X936Y2183D01*
X976Y2183D02*
X1006Y2183D01*
X1417Y2183D02*
X1446Y2183D01*
X1486Y2183D02*
X1516Y2183D01*
X907Y2182D02*
X938Y2182D01*
X974Y2182D02*
X1006Y2182D01*
X1417Y2182D02*
X1448Y2182D01*
X1484Y2182D02*
X1516Y2182D01*
X907Y2181D02*
X941Y2181D01*
X972Y2181D02*
X1006Y2181D01*
X1417Y2181D02*
X1450Y2181D01*
X1482Y2181D02*
X1516Y2181D01*
X907Y2180D02*
X943Y2180D01*
X969Y2180D02*
X1006Y2180D01*
X1417Y2180D02*
X1453Y2180D01*
X1479Y2180D02*
X1516Y2180D01*
X907Y2179D02*
X947Y2179D01*
X965Y2179D02*
X1006Y2179D01*
X1417Y2179D02*
X1457Y2179D01*
X1475Y2179D02*
X1516Y2179D01*
X907Y2178D02*
X1006Y2178D01*
X1417Y2178D02*
X1516Y2178D01*
X907Y2177D02*
X1006Y2177D01*
X1417Y2177D02*
X1516Y2177D01*
X907Y2176D02*
X1006Y2176D01*
X1417Y2176D02*
X1516Y2176D01*
X907Y2175D02*
X1006Y2175D01*
X1417Y2175D02*
X1516Y2175D01*
X907Y2174D02*
X1006Y2174D01*
X1417Y2174D02*
X1516Y2174D01*
X907Y2173D02*
X1006Y2173D01*
X1417Y2173D02*
X1516Y2173D01*
X907Y2172D02*
X1006Y2172D01*
X1417Y2172D02*
X1516Y2172D01*
X907Y2171D02*
X1006Y2171D01*
X1417Y2171D02*
X1516Y2171D01*
X907Y2170D02*
X1006Y2170D01*
X1417Y2170D02*
X1516Y2170D01*
X907Y2169D02*
X1006Y2169D01*
X1417Y2169D02*
X1516Y2169D01*
D02*
G04 End of Copper0*
M02*