; NON-PLATED HOLES START AT T1
; THROUGH (PLATED) HOLES START AT T100
M48
INCH
T1C0.090000
T100C0.080000
T101C0.035000
T102C0.015748
T103C0.031497
T104C0.038000
%
T1
X016459Y011976
X007659Y017276
X007659Y006676
T100
X014659Y022176
X009559Y022176
T101
X017659Y037176
X010659Y045404
X013218Y045404
X017659Y042176
X010659Y047176
X013218Y047176
X014830Y040005
X014830Y047005
X014830Y033005
X014830Y043005
X014830Y037005
X017659Y034176
X017659Y040176
X014830Y045005
X017659Y030176
X017659Y044176
T102
X004659Y047176
T103
X012643Y040176
X012643Y034176
X011659Y043176
X012643Y043176
X011659Y034176
X011659Y040176
X011659Y031176
X012643Y037176
X012643Y031176
X011659Y037176
T104
X008659Y030176
X002663Y043177
X008659Y035176
X002663Y035177
X008659Y043176
X002663Y030177
X008659Y033176
X002663Y039177
X002663Y034177
X008659Y036176
X002663Y040177
X008659Y040176
X002663Y036177
X008659Y034176
X002663Y033177
X008659Y039176
X002663Y031177
X002663Y029177
X008659Y032176
X002663Y032177
X008659Y029176
X008659Y031176
X008659Y041176
X002663Y042177
X002663Y038177
X008659Y037176
X002663Y037177
X008659Y038176
X008659Y042176
X002663Y041177
T00
M30
